<svg width="1366" height="556" viewBox="0 0 1366 556" fill="none" xmlns="http://www.w3.org/2000/svg">
<g clip-path="url(#clip0_3133_7196)">
<rect width="1366" height="556" fill="url(#paint0_linear_3133_7196)"/>
<path opacity="0.5" d="M135.097 687V604.062C135.097 597.798 130.013 592.72 123.742 592.72H43.5484C37.2773 592.72 32.1936 587.642 32.1936 581.378V501.275C32.1936 495.011 27.1098 489.933 20.8387 489.933H-59.3548C-65.6259 489.933 -70.7097 484.855 -70.7097 478.591V398.489C-70.7097 392.225 -75.7934 387.147 -82.0645 387.147H-162.258C-168.529 387.147 -173.613 382.069 -173.613 375.805V295.702C-173.613 289.438 -178.697 284.36 -184.968 284.36H-268M238 687V604.062C238 597.798 232.916 592.72 226.645 592.72H146.452C140.181 592.72 135.097 587.642 135.097 581.378V501.275C135.097 495.011 130.013 489.933 123.742 489.933H43.5484C37.2773 489.933 32.1936 484.855 32.1936 478.591V398.489C32.1936 392.225 37.2773 387.147 43.5484 387.147H123.742C130.013 387.147 135.097 392.225 135.097 398.489V480.009L135.196 480.679C135.958 485.816 140.324 489.652 145.522 489.752L154.968 489.933H226.645C232.916 489.933 238 484.855 238 478.591V398.489C238 392.225 232.916 387.147 226.645 387.147H145.742L143.046 386.967C138.573 386.669 135.097 382.958 135.097 378.479V369.779M135.097 378.64V295.702C135.097 289.438 130.013 284.36 123.742 284.36H43.5484C37.2773 284.36 32.1936 279.282 32.1936 273.018V192.915C32.1936 186.651 27.1098 181.573 20.8387 181.573H-59.3548C-65.6259 181.573 -70.7097 176.495 -70.7097 170.231V90.1286C-70.7097 83.8646 -75.7934 78.7866 -82.0645 78.7866H-162.258C-168.529 78.7866 -173.613 73.7086 -173.613 67.4447V-12.658C-173.613 -18.922 -178.697 -24 -184.968 -24H-268" stroke="url(#paint1_linear_3133_7196)" stroke-width="1.27532"/>
<path d="M1319.1 -40V42.9382C1319.1 49.2022 1314.01 54.2802 1307.74 54.2802H1227.55C1221.28 54.2802 1216.19 59.3581 1216.19 65.6221V145.725C1216.19 151.989 1211.11 157.067 1204.84 157.067H1124.65C1118.37 157.067 1113.29 162.145 1113.29 168.409V248.511C1113.29 254.775 1108.21 259.853 1101.94 259.853H1021.74C1015.47 259.853 1010.39 264.931 1010.39 271.195V351.298C1010.39 357.562 1005.3 362.64 999.032 362.64H916M1422 -40V42.9382C1422 49.2022 1416.92 54.2802 1410.65 54.2802H1330.45C1324.18 54.2802 1319.1 59.3581 1319.1 65.6221V145.725C1319.1 151.989 1314.01 157.067 1307.74 157.067H1227.55C1221.28 157.067 1216.19 162.145 1216.19 168.409V248.511C1216.19 254.775 1221.28 259.853 1227.55 259.853H1307.74C1314.01 259.853 1319.1 254.775 1319.1 248.511V166.991L1319.2 166.321C1319.96 161.184 1324.32 157.348 1329.52 157.248L1338.97 157.067H1410.65C1416.92 157.067 1422 162.145 1422 168.409V248.511C1422 254.775 1416.92 259.853 1410.65 259.853H1329.74L1327.05 260.033C1322.57 260.331 1319.1 264.042 1319.1 268.521V277.221M1319.1 268.36V351.298C1319.1 357.562 1314.01 362.64 1307.74 362.64H1227.55C1221.28 362.64 1216.19 367.718 1216.19 373.982V454.085C1216.19 460.349 1211.11 465.427 1204.84 465.427H1124.65C1118.37 465.427 1113.29 470.505 1113.29 476.769V556.871C1113.29 563.135 1108.21 568.213 1101.94 568.213H1021.74C1015.47 568.213 1010.39 573.291 1010.39 579.555V659.658C1010.39 665.922 1005.3 671 999.032 671H916" stroke="url(#paint2_linear_3133_7196)" stroke-width="1.27532"/>
</g>
<defs>
<linearGradient id="paint0_linear_3133_7196" x1="0" y1="278" x2="1366" y2="278" gradientUnits="userSpaceOnUse">
<stop stop-color="#16181D"/>
<stop offset="1" stop-color="#101216"/>
</linearGradient>
<linearGradient id="paint1_linear_3133_7196" x1="238" y1="687" x2="-255.967" y2="75.0492" gradientUnits="userSpaceOnUse">
<stop stop-color="#0D284C"/>
<stop offset="0.9375" stop-color="#29D6E6"/>
</linearGradient>
<linearGradient id="paint2_linear_3133_7196" x1="1422" y1="-40" x2="928.033" y2="571.951" gradientUnits="userSpaceOnUse">
<stop stop-color="#181B20"/>
<stop offset="1" stop-color="#2A2E38"/>
</linearGradient>
<clipPath id="clip0_3133_7196">
<rect width="1366" height="556" fill="white"/>
</clipPath>
</defs>
</svg>
